<svg id="visual" viewBox="0 0 900 600" width="900" height="600" xmlns="http://www.w3.org/2000/svg" xmlns:xlink="http://www.w3.org/1999/xlink" version="1.1"><path d="M0 447L21.5 434C43 421 86 395 128.8 385C171.7 375 214.3 381 257.2 378.7C300 376.3 343 365.7 385.8 368.8C428.7 372 471.3 389 514.2 403.3C557 417.7 600 429.3 642.8 420.2C685.7 411 728.3 381 771.2 380.5C814 380 857 409 878.5 423.5L900 438L900 601L878.5 601C857 601 814 601 771.2 601C728.3 601 685.7 601 642.8 601C600 601 557 601 514.2 601C471.3 601 428.7 601 385.8 601C343 601 300 601 257.2 601C214.3 601 171.7 601 128.8 601C86 601 43 601 21.5 601L0 601Z" fill="#fa7268"></path><path d="M0 396L21.5 401.3C43 406.7 86 417.3 128.8 425.3C171.7 433.3 214.3 438.7 257.2 441.5C300 444.3 343 444.7 385.8 438.3C428.7 432 471.3 419 514.2 417C557 415 600 424 642.8 427.5C685.7 431 728.3 429 771.2 430.3C814 431.7 857 436.3 878.5 438.7L900 441L900 601L878.5 601C857 601 814 601 771.2 601C728.3 601 685.7 601 642.8 601C600 601 557 601 514.2 601C471.3 601 428.7 601 385.8 601C343 601 300 601 257.2 601C214.3 601 171.7 601 128.8 601C86 601 43 601 21.5 601L0 601Z" fill="#ef5f67"></path><path d="M0 466L21.5 461.7C43 457.3 86 448.7 128.8 448.5C171.7 448.3 214.3 456.7 257.2 461.3C300 466 343 467 385.8 467.3C428.7 467.7 471.3 467.3 514.2 464C557 460.7 600 454.3 642.8 451C685.7 447.7 728.3 447.3 771.2 451.7C814 456 857 465 878.5 469.5L900 474L900 601L878.5 601C857 601 814 601 771.2 601C728.3 601 685.7 601 642.8 601C600 601 557 601 514.2 601C471.3 601 428.7 601 385.8 601C343 601 300 601 257.2 601C214.3 601 171.7 601 128.8 601C86 601 43 601 21.5 601L0 601Z" fill="#e34c67"></path><path d="M0 511L21.5 515.8C43 520.7 86 530.3 128.8 531.5C171.7 532.7 214.3 525.3 257.2 519.5C300 513.7 343 509.3 385.8 512C428.7 514.7 471.3 524.3 514.2 527.8C557 531.3 600 528.7 642.8 529C685.7 529.3 728.3 532.7 771.2 526.7C814 520.7 857 505.3 878.5 497.7L900 490L900 601L878.5 601C857 601 814 601 771.2 601C728.3 601 685.7 601 642.8 601C600 601 557 601 514.2 601C471.3 601 428.7 601 385.8 601C343 601 300 601 257.2 601C214.3 601 171.7 601 128.8 601C86 601 43 601 21.5 601L0 601Z" fill="#d53867"></path><path d="M0 570L21.5 566.7C43 563.3 86 556.7 128.8 549C171.7 541.3 214.3 532.7 257.2 529.2C300 525.7 343 527.3 385.8 532.7C428.7 538 471.3 547 514.2 546.8C557 546.7 600 537.3 642.8 535.7C685.7 534 728.3 540 771.2 544.3C814 548.7 857 551.3 878.5 552.7L900 554L900 601L878.5 601C857 601 814 601 771.2 601C728.3 601 685.7 601 642.8 601C600 601 557 601 514.2 601C471.3 601 428.7 601 385.8 601C343 601 300 601 257.2 601C214.3 601 171.7 601 128.8 601C86 601 43 601 21.5 601L0 601Z" fill="#c62368"></path></svg>