<svg id="visual" viewBox="0 0 900 600" width="900" height="600" xmlns="http://www.w3.org/2000/svg" xmlns:xlink="http://www.w3.org/1999/xlink" version="1.1"><path d="M0 478L21.5 475.2C43 472.3 86 466.7 128.8 470.8C171.7 475 214.3 489 257.2 494.7C300 500.3 343 497.7 385.8 497.8C428.7 498 471.3 501 514.2 496.7C557 492.3 600 480.7 642.8 475.7C685.7 470.7 728.3 472.3 771.2 479.2C814 486 857 498 878.5 504L900 510L900 601L878.5 601C857 601 814 601 771.2 601C728.3 601 685.7 601 642.8 601C600 601 557 601 514.2 601C471.3 601 428.7 601 385.8 601C343 601 300 601 257.2 601C214.3 601 171.7 601 128.8 601C86 601 43 601 21.5 601L0 601Z" fill="#fa7268"></path><path d="M0 508L21.5 511.3C43 514.7 86 521.3 128.8 523.5C171.7 525.7 214.3 523.3 257.2 519.8C300 516.3 343 511.7 385.8 512.8C428.7 514 471.3 521 514.2 522C557 523 600 518 642.8 515.3C685.7 512.7 728.3 512.3 771.2 515.7C814 519 857 526 878.5 529.5L900 533L900 601L878.5 601C857 601 814 601 771.2 601C728.3 601 685.7 601 642.8 601C600 601 557 601 514.2 601C471.3 601 428.7 601 385.8 601C343 601 300 601 257.2 601C214.3 601 171.7 601 128.8 601C86 601 43 601 21.5 601L0 601Z" fill="#db4861"></path><path d="M0 566L21.5 564.7C43 563.3 86 560.7 128.8 560.5C171.7 560.3 214.3 562.7 257.2 562.3C300 562 343 559 385.8 556.7C428.7 554.3 471.3 552.7 514.2 555.3C557 558 600 565 642.8 566.7C685.7 568.3 728.3 564.7 771.2 563.3C814 562 857 563 878.5 563.5L900 564L900 601L878.5 601C857 601 814 601 771.2 601C728.3 601 685.7 601 642.8 601C600 601 557 601 514.2 601C471.3 601 428.7 601 385.8 601C343 601 300 601 257.2 601C214.3 601 171.7 601 128.8 601C86 601 43 601 21.5 601L0 601Z" fill="#b7195b"></path></svg>